<svg width="96" height="96" viewBox="0 0 96 96" fill="none" xmlns="http://www.w3.org/2000/svg">
<path d="M45 83V52.1H43C38.7333 52.1 34.7167 51.2833 30.95 49.65C27.1833 48.0167 23.8333 45.7 20.9 42.7C17.9667 39.7 15.75 36.2333 14.25 32.3C12.75 28.3667 12 24.2667 12 20V12H19.8C23.9333 12 27.9 12.8167 31.7 14.45C35.5 16.0833 38.9 18.4 41.9 21.4C44.1 23.6667 45.9167 26.2 47.35 29C48.7833 31.8 49.8 34.7667 50.4 37.9C50.9333 37.1 51.5 36.3333 52.1 35.6C52.7 34.8667 53.3333 34.1333 54 33.4C57 30.4 60.4 28.0833 64.2 26.45C68 24.8167 72 24 76.2 24H84V32C84 36.2667 83.2 40.3667 81.6 44.3C80 48.2333 77.7333 51.7 74.8 54.7C71.8 57.7 68.4167 60 64.65 61.6C60.8833 63.2 56.9333 64 52.8 64H51V83H45ZM45.1 46C45.1 41.9333 44.4333 38.15 43.1 34.65C41.7667 31.15 39.9333 28.1667 37.6 25.7C35.2667 23.3 32.4 21.4167 29 20.05C25.6 18.6833 21.9333 18 18 18C18 22.2 18.6167 26.05 19.85 29.55C21.0833 33.05 22.8667 36.0333 25.2 38.5C28 41.5 31.0167 43.5 34.25 44.5C37.4833 45.5 41.1 46 45.1 46ZM51 58C55 58 58.7 57.35 62.1 56.05C65.5 54.75 68.3667 52.8667 70.7 50.4C73.0333 48 74.8333 45.05 76.1 41.55C77.3667 38.05 78 34.2 78 30C74 30 70.3 30.6833 66.9 32.05C63.5 33.4167 60.6333 35.3 58.3 37.7C55.4333 40.7 53.5 43.8333 52.5 47.1C51.5 50.3667 51 54 51 58Z" fill="#FFAC6D"/>
</svg>
